<?xml version="1.0" standalone="no"?>
<!DOCTYPE svg PUBLIC "-//W3C//DTD SVG 20010904//EN"
 "http://www.w3.org/TR/2001/REC-SVG-20010904/DTD/svg10.dtd">
<svg version="1.0" xmlns="http://www.w3.org/2000/svg"
 width="624.000000pt" height="877.000000pt" viewBox="0 0 624.000000 877.000000"
 preserveAspectRatio="xMidYMid meet">
<metadata>
Created by potrace 1.16, written by Peter Selinger 2001-2019
</metadata>
<g transform="translate(0.000000,877.000000) scale(0.100000,-0.100000)"
fill="#000000" stroke="none">
<path d="M2760 6460 c-8 -10 -253 -323 -545 -695 -291 -372 -556 -715 -588
-763 -117 -176 -211 -401 -257 -617 -30 -141 -39 -441 -17 -580 86 -542 447
-920 964 -1010 124 -22 354 -20 495 4 282 49 564 186 806 394 116 99 172 165
537 632 180 231 329 422 331 424 2 2 61 -42 133 -98 131 -103 173 -123 203
-99 11 9 61 220 177 758 89 410 161 762 161 783 0 30 -4 37 -20 37 -13 0 -20
7 -20 20 0 11 -1 20 -3 20 -2 0 -311 -151 -688 -336 -711 -349 -739 -365 -739
-425 0 -30 13 -43 168 -163 56 -44 102 -83 102 -88 0 -13 -607 -787 -664 -846
-322 -337 -821 -388 -1097 -113 -114 114 -172 266 -172 451 0 112 16 197 60
308 24 60 26 62 44 46 15 -13 16 -19 5 -29 -22 -23 -39 -73 -32 -100 10 -39
59 -58 161 -63 74 -3 96 0 126 16 35 18 37 18 48 0 9 -14 24 -18 69 -18 32 0
63 5 70 12 7 7 12 41 12 84 0 77 7 107 21 98 5 -3 9 -42 9 -88 0 -50 5 -87 12
-94 18 -18 113 -15 132 3 14 14 18 14 40 0 20 -13 47 -16 140 -13 l116 3 0
-36 c0 -50 17 -61 92 -57 l63 3 3 41 3 42 60 4 c50 4 64 9 92 36 l33 32 20
-21 c29 -33 77 -49 146 -49 45 0 72 6 95 20 33 20 56 52 51 73 -1 6 4 23 11
35 16 30 6 108 -19 150 -51 84 -218 98 -284 23 l-19 -21 -26 24 c-39 38 -71
45 -185 45 -109 0 -136 -9 -136 -46 0 -14 -4 -13 -22 5 -33 30 -72 42 -136 42
-61 0 -142 -30 -142 -52 0 -7 -5 -5 -11 5 -15 25 -70 47 -118 47 -40 0 -40 0
-43 43 l-3 42 -73 3 c-66 3 -74 1 -79 -16 -4 -18 -8 -19 -50 -6 -26 8 -64 14
-85 14 -22 0 -38 4 -36 8 2 5 226 293 498 641 458 585 495 636 497 674 2 28
-3 49 -15 62 -26 31 -433 347 -451 351 -9 2 -23 -5 -31 -16z m-210 -1780 l0
-60 25 16 c18 12 38 15 68 11 75 -10 102 -68 95 -202 l-3 -60 -37 -3 -38 -3 0
81 c0 95 -10 120 -48 120 -50 0 -57 -12 -62 -107 l-5 -88 -35 0 -35 0 -3 178
-2 177 40 0 40 0 0 -60z m-168 31 c25 -9 26 -12 16 -41 -8 -23 -15 -29 -27
-24 -9 3 -37 9 -63 11 -50 6 -78 -7 -78 -33 0 -16 16 -23 102 -48 64 -19 88
-44 88 -91 0 -84 -106 -128 -222 -93 -46 14 -55 29 -39 65 9 20 14 23 25 14
20 -16 109 -29 135 -20 12 5 21 17 21 28 0 16 -14 24 -71 41 -107 32 -139 75
-107 146 26 56 134 78 220 45z m605 -81 c40 -24 55 -74 51 -173 -3 -71 -3 -72
-32 -75 -16 -2 -33 1 -38 6 -6 6 -22 6 -43 -1 -71 -21 -135 14 -135 75 0 49
53 78 143 78 34 0 35 14 2 36 -22 15 -32 15 -67 4 -37 -11 -43 -10 -55 6 -19
26 -16 33 20 49 47 21 116 19 154 -5z m193 4 c0 -14 2 -14 22 0 51 36 143 5
169 -57 28 -68 5 -153 -51 -182 -37 -19 -90 -19 -118 1 l-22 15 0 -61 0 -61
-37 3 -38 3 -3 165 c-1 90 0 170 2 177 8 19 76 17 76 -3z m441 1 c38 -20 69
-70 69 -112 l0 -33 -95 0 c-53 0 -95 -4 -95 -9 0 -16 42 -41 68 -41 13 0 32 5
43 11 16 8 25 7 40 -7 27 -24 24 -33 -16 -50 -103 -43 -215 18 -215 116 0 103
111 171 201 125z"/>
</g>
</svg>
